<?xml version="1.0" encoding="utf-8"?>
<!-- Generator: Adobe Illustrator 23.1.0, SVG Export Plug-In . SVG Version: 6.00 Build 0)  -->
<svg version="1.1" id="Layer_1" xmlns="http://www.w3.org/2000/svg" xmlns:xlink="http://www.w3.org/1999/xlink" x="0px" y="0px"
	 viewBox="0 0 37 37" style="enable-background:new 0 0 37 37;" xml:space="preserve">
<style type="text/css">
	.st0{fill:#FFFFFF;}
</style>
<g>
	<circle cx="18.63" cy="18.1" r="17.69"/>
	<g>
		<path class="st0" d="M14.25,18.97c0.2,5.99,2.4,10.08,4.38,10.08c1.98,0,4.18-4.1,4.38-10.08H14.25z"/>
		<path class="st0" d="M18.63,7.13c-1.98,0-4.18,4.1-4.38,10.08h8.77C22.81,11.23,20.62,7.13,18.63,7.13z"/>
		<path class="st0" d="M24.77,17.22h5.66c-0.38-5.22-4.15-9.5-9.12-10.65C23.29,8.44,24.62,12.38,24.77,17.22z"/>
		<path class="st0" d="M24.77,18.97c-0.15,4.84-1.48,8.78-3.45,10.65c4.97-1.15,8.73-5.43,9.12-10.65H24.77z"/>
		<path class="st0" d="M12.49,18.97H6.83c0.38,5.22,4.15,9.5,9.12,10.65C13.98,27.75,12.64,23.81,12.49,18.97z"/>
		<path class="st0" d="M12.49,17.22c0.15-4.84,1.48-8.78,3.45-10.65C10.98,7.72,7.21,12,6.83,17.22H12.49z"/>
	</g>
</g>
</svg>
