<?xml version="1.0" encoding="utf-8"?>
<!-- Generator: Adobe Illustrator 23.1.0, SVG Export Plug-In . SVG Version: 6.00 Build 0)  -->
<svg version="1.1" id="Layer_1" xmlns="http://www.w3.org/2000/svg" xmlns:xlink="http://www.w3.org/1999/xlink" x="0px" y="0px"
	 viewBox="0 0 37 37" style="enable-background:new 0 0 37 37;" xml:space="preserve">
<style type="text/css">
	.st0{fill:#FFFFFF;}
</style>
<g>
	<circle cx="18.63" cy="18.1" r="17.69"/>
	<g>
		<g>
			<path class="st0" d="M24.12,11.4c-0.67,0-1.22,0.54-1.22,1.22c0,0.67,0.54,1.22,1.22,1.22c0.67,0,1.22-0.54,1.22-1.22
				C25.34,11.95,24.79,11.4,24.12,11.4z"/>
			<path class="st0" d="M18.72,12.96c-2.82,0-5.11,2.29-5.11,5.11c0,2.82,2.29,5.11,5.11,5.11c2.82,0,5.11-2.29,5.11-5.11
				C23.82,15.25,21.53,12.96,18.72,12.96z M18.72,21.34c-1.8,0-3.27-1.47-3.27-3.27c0-1.8,1.47-3.27,3.27-3.27s3.27,1.47,3.27,3.27
				C21.99,19.87,20.52,21.34,18.72,21.34z"/>
			<path class="st0" d="M22.77,28.44h-8.28c-3.44,0-6.23-2.8-6.23-6.23v-8.28c0-3.44,2.79-6.23,6.23-6.23h8.28
				c3.44,0,6.23,2.79,6.23,6.23v8.28C29,25.65,26.21,28.44,22.77,28.44z M14.49,9.65c-2.36,0-4.28,1.92-4.28,4.28v8.28
				c0,2.36,1.92,4.28,4.28,4.28h8.28c2.36,0,4.28-1.92,4.28-4.28v-8.28c0-2.36-1.92-4.28-4.28-4.28H14.49z"/>
		</g>
	</g>
</g>
</svg>
